Title: Un Ete Brulant Aka The Summer

Country: France, 2011

Director: Philippe Garrel

Writers: Marc Cholodenko (scenario), Philippe Garrel (scenario)

Stars: Monica Bellucci, Louis Garrel and Céline Sallette

Language: French

Plot: Paul Frederic meeting through a mutual friend. Frederic is a painter. He lives with Angela, an actress who made ​​films in Italy. To live while waiting to be actor, Paul made ​​up the numbers. On a tray, Paul meets Elizabeth who is also extra.
They fall in love.Frédéric invites Paul and Elizabeth in Rome. The new movie from french master Philippe Garrel ("Les amants réguliers"). Selection Venice Film Festival 2011.

Imdb: http://www.imdb.com/title/tt1740053/

Rip Specs:
General
Complete name                  : Un.Ete.Brulant.2011.DVDRip.AC3.HORiZON-ArtSubs
Format                           : AVI
Format/Info                      : Audio Video Interleave
File size                        : 1.37 GiB
Duration                         : 1h 31mn
Overall bit rate                 : 2 142 Kbps
Writing application              : FairUse Wizard - http://fairusewizard.com
Writing library                  : The best and REALLY easy backup tool

Video
ID                               : 0
Format                           : MPEG-4 Visual
Format profile                   : Advanced Simple@L5
Format settings, BVOP            : 1
Format settings, QPel            : No
Format settings, GMC             : No warppoints
Format settings, Matrix          : Default (MPEG)
Muxing mode                      : Packed bitstream
Codec ID                         : XVID
Codec ID/Hint                    : XviD
Duration                         : 1h 31mn
Bit rate                         : 1 684 Kbps
Width                            : 704 pixels
Height                           : 288 pixels
Display aspect ratio             : 2.40:1
Frame rate                       : 25.000 fps
Color space                      : YUV
Chroma subsampling               : 4:2:0
Bit depth                        : 8 bits
Scan type                        : Progressive
Compression mode                 : Lossy
Bits/(Pixel*Frame)               : 0.332
Stream size                      : 1.07 GiB (79%)
Writing library                  : XviD 1.2.0.dev47 (UTC 2006-11-01)

Audio
ID                               : 1
Format                           : AC-3
Format/Info                      : Audio Coding 3
Mode extension                   : CM (complete main)
Codec ID                         : 2000
Duration                         : 1h 31mn
Bit rate mode                    : Constant
Bit rate                         : 448 Kbps
Channel(s)                       : 6 channels
Channel positions                : Front: L C R, Side: L R, LFE
Sampling rate                    : 48.0 KHz
Bit depth                        : 16 bits
Compression mode                 : Lossy
Stream size                      : 292 MiB (21%)
Alignment                        : Split accross interleaves
Interleave, duration             : 40 ms (1.00 video frame)
Interleave, preload duration     : 500 ms




